# xmcd CD database file
#
# Track frame offsets:
#	150
#	23212
#	39197
#	59670
#	76762
#	104732
#	123645
#	138962
#	154740
#	175057
#
# Disc length: 2626 seconds
#
# Revision: 2
# Processed by: cddbd v1.5.2PL0 Copyright (c) Steve Scherf et al.
# Submitted via: CDex 1.70beta2
#
DISCID=7f0a400a
DTITLE=柳ジョージ - TOBACCO ROAD
DYEAR=1900
DGENRE=Pop
TTITLE0=ダンスィン・イン・ザ・ハーバーライト 
TTITLE1=アウトロー物語
TTITLE2=センチメンタル・ナイト
TTITLE3=ハロー・カリフォルニア・デイズ
TTITLE4=コイン・ランドリー・ブルース 
TTITLE5=ルビーの腕に… 
TTITLE6=アディオス・セニョリータ 
TTITLE7=ペーパー・ムーン 
TTITLE8=そばかすマリア 
TTITLE9=ペーパーバック・ストーリー
EXTD=YEAR: 1900
EXTT0=
EXTT1=
EXTT2=
EXTT3=
EXTT4=
EXTT5=
EXTT6=
EXTT7=
EXTT8=
EXTT9=
PLAYORDER=
